# xmcd CD database file
#
# Track frame offsets:
#	150
#	15561
#	32224
#	49252
#	63608
#	78240
#	90911
#	107002
#	124173
#	141791
#	159707
#	178701
#	196712
#	216469
#	233095
#	251796
#	267950
#	283632
#	299963
#	320309
#	336289
#	358810
#
# Disc length: 5009 seconds
#
# Revision: 2
# Processed by: cddbd v1.5.2PL0 Copyright (c) Steve Scherf et al.
# Submitted via: CDex 1.70beta2
#
DISCID=55138f16
DTITLE=Various Artist - Club Sounds 90s Vol. 3 - CD 1
DYEAR=2018
DGENRE=Dance
TTITLE0=Gigi D´Agostino - The Riddle
TTITLE1=Vengaboys - We Like to Party
TTITLE2=Scooter - Faster Harder Scooter
TTITLE3=Rednex - Cotton Eye Joe
TTITLE4=Aqua - Barbie Girl
TTITLE5=Bellini - Samba de Janeiro
TTITLE6=Loona - Bailando
TTITLE7=Mouse T. vs. Hot ´n´ Juicy - Horny '98
TTITLE8=Dario G - Sunchyme
TTITLE9=Whigfield - Sexy Eyes
TTITLE10=Captain Jack - Drill Instructor
TTITLE11=Dj Bobo - Let the Dream Come True
TTITLE12=Cut ´n´ Move - Give It Up
TTITLE13=Scatman John - Scatman's World
TTITLE14=Haddaway - Rock My Heart
TTITLE15=Mr. President - I Give You My Heart
TTITLE16=X-Perience - A Neverending Dream
TTITLE17=Charly Lownoise and Mental Theo - Stars
TTITLE18=Prezioso feat. Marvin - Tell me why
TTITLE19=Aquagen - Ihr seid so leise!
TTITLE20=Mark Oh - Randy (Never Stop That Feeling)
TTITLE21=Bluemchen - Herz an Herz
EXTD=YEAR: 2018
EXTT0=
EXTT1=
EXTT2=
EXTT3=
EXTT4=
EXTT5=
EXTT6=
EXTT7=
EXTT8=
EXTT9=
EXTT10=
EXTT11=
EXTT12=
EXTT13=
EXTT14=
EXTT15=
EXTT16=
EXTT17=
EXTT18=
EXTT19=
EXTT20=
EXTT21=
PLAYORDER=
